<svg xmlns="http://www.w3.org/2000/svg" version="1.1" xmlns:xlink="http://www.w3.org/1999/xlink" xmlns:svgjs="http://svgjs.dev/svgjs" width="1000" height="123" viewBox="0 0 1000 123"><g transform="matrix(1,0,0,1,-0.6060547921628086,-0.6045699948546712)"><svg viewBox="0 0 396 49" data-background-color="#ffffff" preserveAspectRatio="xMidYMid meet" height="123" width="1000" xmlns="http://www.w3.org/2000/svg" xmlns:xlink="http://www.w3.org/1999/xlink"><g id="tight-bounds" transform="matrix(1,0,0,1,0.23999769769648083,0.2408449572998279)"><svg viewBox="0 0 395.52 48.518310085400365" height="48.518310085400365" width="395.52"><g><svg viewBox="0 0 492.59303174142764 60.42622739668804" height="48.518310085400365" width="395.52"><g transform="matrix(1,0,0,1,97.07303174142766,8.351236926749216)"><svg viewBox="0 0 395.52 43.72375354318961" height="43.72375354318961" width="395.52"><g id="textblocktransform"><svg viewBox="0 0 395.52 43.72375354318961" height="43.72375354318961" width="395.52" id="textblock"><g><svg viewBox="0 0 395.52 43.72375354318961" height="43.72375354318961" width="395.52"><g transform="matrix(1,0,0,1,0,0)"><svg width="395.52" viewBox="1.850000023841858 -36 335.1199951171875 37.04999923706055" height="43.72375354318961" data-palette-color="#f3a83c"><path d="M13.4-35.85Q18.15-35.85 21.23-33.98 24.3-32.1 26-30.4L26-30.4Q26.2-30.2 26.2-29.95L26.2-29.95Q26.2-29.8 26.08-29.58 25.95-29.35 25.9-29.25L25.9-29.25Q25.65-28.9 25.08-28.03 24.5-27.15 24.15-26.75L24.15-26.75Q24-26.55 23.83-26.33 23.65-26.1 23.53-26 23.4-25.9 23.15-25.9L23.15-25.9Q23.05-25.9 22.68-26.23 22.3-26.55 21.95-26.8L21.95-26.8Q19.95-28.55 18.05-29.8 16.15-31.05 14.4-31.05L14.4-31.05Q13-31.05 12.1-30.43 11.2-29.8 11.2-27.6L11.2-27.6Q11.2-25.45 12.8-24.25 14.4-23.05 17.05-21.95L17.05-21.95Q17.3-21.85 19.98-20.7 22.65-19.55 24.73-16.3 26.8-13.05 26.8-8.55L26.8-8.55Q26.8-3.75 23.2-1.35 19.6 1.05 13.25 1.05L13.25 1.05Q6.05 1.05 4.1-1.73 2.15-4.5 2.05-4.6L2.05-4.6Q1.85-4.85 1.85-5.1L1.85-5.1Q1.85-5.25 2.25-5.75L2.25-5.75Q2.9-6.65 4.15-7.9L4.15-7.9Q4.35-8.1 4.55-8.1L4.55-8.1Q4.8-8.1 5.1-7.73 5.4-7.35 5.6-7.15L5.6-7.15Q8.55-4.2 12.3-4.2L12.3-4.2Q14.2-4.2 15.6-4.93 17-5.65 17-7.65L17-7.65Q17-11.1 11.55-15L11.55-15Q10.65-15.6 9.85-16L9.85-16Q7.75-17.15 6.25-18.25 4.75-19.35 3.6-21.15 2.45-22.95 2.45-25.35L2.45-25.35Q2.45-28.35 4.33-30.75 6.2-33.15 8.83-34.5 11.45-35.85 13.4-35.85L13.4-35.85ZM34.25-34.55Q34.2-33.95 34.15-27.55 34.1-21.15 34.1-14.4L34.1-14.4Q34.1-11.5 34.82-9.2 35.55-6.9 36.85-5.6 38.15-4.3 39.75-4.3L39.75-4.3Q41.95-4.3 42.92-5.58 43.9-6.85 43.9-8.25L43.9-8.25 44-11.3Q44.15-18.8 44.15-19.6L44.15-19.6Q44.15-20.75 44.25-24.15L44.25-24.15Q44.4-27 44.4-29.75L44.4-29.75Q44.4-32.2 44.2-33.2L44.2-33.2Q44.05-33.8 44.05-34.15L44.05-34.15Q44.05-34.85 44.37-35.02 44.7-35.2 45.02-35.18 45.35-35.15 45.45-35.15L45.45-35.15Q45.95-35.1 46.57-35.13 47.2-35.15 47.7-35.15L47.7-35.15 49-35.15Q49.8-35.15 49.92-34.93 50.05-34.7 50.1-33.95L50.1-33.95Q50.2-32.85 50.2-31.25L50.2-31.25Q50.2-30.15 50.15-29.65L50.15-29.65Q50.1-29.15 50.2-25.45L50.2-25.45Q50.45-19.35 50.45-15.4L50.45-15.4 50.45-12.35Q50.35-5.9 47.37-3.03 44.4-0.15 40.2-0.15L40.2-0.15Q37-0.15 35.05-2.27 33.1-4.4 32.3-7L32.3-7Q31.95-8.15 31.77-10.58 31.6-13 31.6-15.55L31.6-15.55Q31.6-18.4 31.75-19.35L31.75-19.35Q31.85-20.05 31.85-24L31.85-24Q31.85-30.3 31.65-33.1L31.65-33.1Q31.6-33.4 31.6-33.9L31.6-33.9Q31.6-35.45 32.55-35.05L32.55-35.05 33.1-35Q33.3-35 33.52-35.05 33.75-35.1 34-35.1L34-35.1Q34.25-35.1 34.25-34.55L34.25-34.55ZM62.55-32.6Q62.8-31.25 63.72-28.85 64.65-26.45 65.5-24.65L65.5-24.65Q66.2-23.45 67.37-20.78 68.55-18.1 69.05-16.55L69.05-16.55Q69.35-15.75 69.9-14.55L69.9-14.55 70.65-12.75 71.7-10.4Q73.15-13.25 73.8-14.55L73.8-14.55 77.05-21.05 79.3-25.55Q81.05-29.15 81.65-30.2L81.65-30.2Q82.6-32.15 83.65-33.83 84.7-35.5 85.15-35.5L85.15-35.5Q85.55-35.5 85.55-34.85L85.55-34.85Q85.55-34.25 85.3-33.25L85.3-33.25 85.1-32Q84.9-30.65 84.9-20L84.9-20Q84.9-17.65 84.77-14.3 84.65-10.95 84.55-9.85L84.55-9.85Q84.45-8.55 84.45-6L84.45-6 84.5-1.15 84.5-0.9Q84.5-0.3 84.2-0.4L84.2-0.4 84.1-0.4Q83.85-0.4 83.52-0.35 83.2-0.3 82.85-0.3L82.85-0.3Q82.65-0.35 82.57-0.55 82.5-0.75 82.5-1.25L82.5-1.25 82.5-4.2Q82.5-9.3 82.6-10.2L82.6-10.2Q82.7-11.25 82.82-14.1 82.95-16.95 82.95-18.7L82.95-18.7Q82.9-19.15 83-21.5L83-21.5 83.05-23.3 83.15-26.9Q82.8-26.4 82.55-25.85L82.55-25.85Q82.05-25 81.6-24L81.6-24 81.1-23Q80.25-21.35 79.15-19.13 78.05-16.9 77.25-15.35L77.25-15.35Q76.35-13.55 74.97-10.73 73.6-7.9 72.85-6.25L72.85-6.25Q71.55-3.2 71.35-3.2L71.35-3.2Q71.2-3.2 70.9-3.7 70.6-4.2 70.5-4.35L70.5-4.35Q70.15-4.9 69.4-6.68 68.65-8.45 68.2-9.8L68.2-9.8Q67.9-10.7 65.6-14.85L65.6-14.85Q63.8-18.3 63.75-18.45L63.75-18.45Q63.25-19.45 62.4-21.8L62.4-21.8Q61.85-23.05 61.55-24L61.55-24 61.45-21.8 61.35-18.4 61.25-8.55 61.2-0.75Q61.2-0.3 60.95-0.2 60.7-0.1 60.35-0.13 60-0.15 59.8-0.15L59.8-0.15 58.7-0.1Q57.8 0 57.4 0L57.4 0Q56.65 0 56.52-0.33 56.4-0.65 56.45-1.7L56.45-1.7Q56.45-3.35 56.4-4.85L56.4-4.85 56.3-11Q56.3-12.4 56.4-13.93 56.5-15.45 56.55-16.65L56.55-16.65Q56.8-20.25 56.8-21.7L56.8-21.7 56.9-31.1 56.85-33.8Q56.85-35.55 57.1-35.8L57.1-35.8Q57.25-35.95 57.45-35.95L57.45-35.95Q57.6-35.95 57.9-35.85 58.2-35.75 58.65-35.8L58.65-35.8Q59.1-35.85 59.9-35.85L59.9-35.85Q60.85-35.85 61.3-35.75L61.3-35.75Q61.75-35.6 61.95-35.02 62.15-34.45 62.3-33.73 62.45-33 62.55-32.6L62.55-32.6ZM97.74-32.6Q97.99-31.25 98.92-28.85 99.84-26.45 100.69-24.65L100.69-24.65Q101.39-23.45 102.57-20.78 103.74-18.1 104.24-16.55L104.24-16.55Q104.54-15.75 105.09-14.55L105.09-14.55 105.84-12.75 106.89-10.4Q108.34-13.25 108.99-14.55L108.99-14.55 112.24-21.05 114.49-25.55Q116.24-29.15 116.84-30.2L116.84-30.2Q117.79-32.15 118.84-33.83 119.89-35.5 120.34-35.5L120.34-35.5Q120.74-35.5 120.74-34.85L120.74-34.85Q120.74-34.25 120.49-33.25L120.49-33.25 120.29-32Q120.09-30.65 120.09-20L120.09-20Q120.09-17.65 119.97-14.3 119.84-10.95 119.74-9.85L119.74-9.85Q119.64-8.55 119.64-6L119.64-6 119.69-1.15 119.69-0.9Q119.69-0.3 119.39-0.4L119.39-0.4 119.29-0.4Q119.04-0.4 118.72-0.35 118.39-0.3 118.04-0.3L118.04-0.3Q117.84-0.35 117.77-0.55 117.69-0.75 117.69-1.25L117.69-1.25 117.69-4.2Q117.69-9.3 117.79-10.2L117.79-10.2Q117.89-11.25 118.02-14.1 118.14-16.95 118.14-18.7L118.14-18.7Q118.09-19.15 118.19-21.5L118.19-21.5 118.24-23.3 118.34-26.9Q117.99-26.4 117.74-25.85L117.74-25.85Q117.24-25 116.79-24L116.79-24 116.29-23Q115.44-21.35 114.34-19.13 113.24-16.9 112.44-15.35L112.44-15.35Q111.54-13.55 110.17-10.73 108.79-7.9 108.04-6.25L108.04-6.25Q106.74-3.2 106.54-3.2L106.54-3.2Q106.39-3.2 106.09-3.7 105.79-4.2 105.69-4.35L105.69-4.35Q105.34-4.9 104.59-6.68 103.84-8.45 103.39-9.8L103.39-9.8Q103.09-10.7 100.79-14.85L100.79-14.85Q98.99-18.3 98.94-18.45L98.94-18.45Q98.44-19.45 97.59-21.8L97.59-21.8Q97.04-23.05 96.74-24L96.74-24 96.64-21.8 96.54-18.4 96.44-8.55 96.39-0.75Q96.39-0.3 96.14-0.2 95.89-0.1 95.54-0.13 95.19-0.15 94.99-0.15L94.99-0.15 93.89-0.1Q92.99 0 92.59 0L92.59 0Q91.84 0 91.72-0.33 91.59-0.65 91.64-1.7L91.64-1.7Q91.64-3.35 91.59-4.85L91.59-4.85 91.49-11Q91.49-12.4 91.59-13.93 91.69-15.45 91.74-16.65L91.74-16.65Q91.99-20.25 91.99-21.7L91.99-21.7 92.09-31.1 92.04-33.8Q92.04-35.55 92.29-35.8L92.29-35.8Q92.44-35.95 92.64-35.95L92.64-35.95Q92.79-35.95 93.09-35.85 93.39-35.75 93.84-35.8L93.84-35.8Q94.29-35.85 95.09-35.85L95.09-35.85Q96.04-35.85 96.49-35.75L96.49-35.75Q96.94-35.6 97.14-35.02 97.34-34.45 97.49-33.73 97.64-33 97.74-32.6L97.74-32.6ZM148.24-0.7Q148.39-0.35 148.39-0.2L148.39-0.2Q148.39 0 147.84 0L147.84 0 145.04 0Q144.84 0 144.72-0.08 144.59-0.15 144.49-0.45L144.49-0.45Q144.29-1 143.94-2.25L143.94-2.25Q143.49-3.5 143.34-4.5L143.34-4.5Q143.19-5.25 142.87-6.3 142.54-7.35 142.29-7.9L142.29-7.9Q141.84-8.85 141.49-10.05L141.49-10.05 141.04-11.5Q140.79-12.05 140.67-12.18 140.54-12.3 140.24-12.3L140.24-12.3Q139.19-12.3 138.69-12.25L138.69-12.25 136.54-12.15Q136.14-12.1 132.84-12.1L132.84-12.1 129.79-12.1 129.69-12.1Q129.39-12.1 129.24-11.55L129.24-11.55 129.14-11.05 128.94-10.1Q128.84-9.85 128.29-7.2L128.29-7.2Q128.14-6.35 127.79-5L127.79-5Q127.69-4 127.34-3.35L127.34-3.35Q127.24-3.2 127.09-2.65 126.94-2.1 126.84-1.75L126.84-1.75Q126.69-1.35 126.49-0.45L126.49-0.45Q126.44-0.4 126.39-0.23 126.34-0.05 126.24-0.03 126.14 0 125.94 0L125.94 0 124.94 0Q124.49 0 124.69-0.65L124.69-0.65Q124.69-0.8 124.74-0.9L124.74-0.9Q124.74-1 124.79-1.15 124.84-1.3 124.94-1.6L124.94-1.6 125.39-3.45Q125.49-3.75 125.74-4.5 125.99-5.25 126.09-5.9L126.09-5.9Q126.34-7.1 127.04-9.55L127.04-9.55 127.44-10.95Q128.39-14.05 128.64-15.3L128.64-15.3 129.34-17.95Q129.84-19.6 129.94-20.05L129.94-20.05Q130.29-21.55 130.94-23.8L130.94-23.8 131.29-25.2 131.59-26.25Q132.09-27.95 132.44-28.7L132.44-28.7Q132.54-29 133.17-30.78 133.79-32.55 133.99-33.6L133.99-33.6Q134.34-34.8 134.72-35.4 135.09-36 135.74-36L135.74-36Q135.99-36 136.24-35.55 136.49-35.1 136.74-34.45 136.99-33.8 137.09-33.5L137.09-33.5Q137.49-32.55 138.49-28.75L138.49-28.75 138.89-27.35Q138.94-26.95 140.54-22.45L140.54-22.45 141.49-19.7 142.39-17.35Q143.79-13.4 144.19-12.55L144.19-12.55Q145.94-7.25 146.24-6.15L146.24-6.15Q146.59-4.85 147.37-2.9 148.14-0.95 148.24-0.7L148.24-0.7ZM138.89-15.55Q139.54-15.55 139.54-15.9L139.54-15.9Q139.54-16.15 139.19-17L139.19-17Q138.89-17.75 138.29-19.8L138.29-19.8Q137.84-21.45 137.39-22.65L137.39-22.65Q136.89-24.15 136.32-26.2 135.74-28.25 135.64-28.85L135.64-28.85Q134.89-31.5 134.64-31.5L134.64-31.5Q134.49-31.5 134.14-30.15L134.14-30.15 133.84-29.05Q133.49-27.7 132.94-25.68 132.39-23.65 131.94-22.25L131.94-22.25Q131.64-20.95 131.12-18.98 130.59-17 130.29-16.25L130.29-16.25Q130.19-15.95 130.19-15.9L130.19-15.9Q130.19-15.55 130.52-15.45 130.84-15.35 131.17-15.38 131.49-15.4 131.59-15.4L131.59-15.4 134.49-15.5Q135.09-15.6 136.19-15.6L136.19-15.6 138.89-15.55ZM174.44-1.4Q175.14-0.3 175.14 0.05L175.14 0.05Q175.14 0.25 174.89 0.3 174.64 0.35 174.46 0.35 174.29 0.35 174.19 0.35L174.19 0.35 168.54 0.5Q168.14 0.5 167.91 0.15 167.69-0.2 167.29-1.1L167.29-1.1Q167.04-1.85 166.39-3.1L166.39-3.1Q165.39-4.9 162.94-9.85L162.94-9.85 160.39-14.8 160.54-12.15 160.79-8.35Q161.09-1.65 161.29-0.95L161.29-0.95Q161.34-0.75 161.34-0.45L161.34-0.45Q161.34 0.45 160.39 0.45L160.39 0.45Q160.09 0.45 159.89 0.4L159.89 0.4Q159.09 0.3 155.99 0.6L155.99 0.6Q153.89 0.8 153.44 0.8L153.44 0.8Q152.79 0.8 152.56 0.55 152.34 0.3 152.34-0.3L152.34-0.3 152.39-1.45 152.29-4.35Q151.99-9.55 151.99-13.4L151.99-13.4Q151.99-15.4 152.14-16.15L152.14-16.15Q152.39-17.4 152.39-23.2L152.39-23.2Q152.39-29.25 152.19-32.35L152.19-32.35Q152.14-32.75 152.14-33.45L152.14-33.45Q152.14-34.25 152.29-34.6 152.44-34.95 152.61-34.98 152.79-35 153.24-35L153.24-35 154.34-35.1Q157.79-35.5 159.84-35.5L159.84-35.5Q165.44-35.5 168.26-32.63 171.09-29.75 171.09-25.15L171.09-25.15Q171.09-21.5 168.74-18.15L168.74-18.15Q167.74-16.7 166.44-15.55L166.44-15.55 169.94-9.2Q173.79-2.3 174.44-1.4L174.44-1.4ZM160.09-21.45Q160.84-21.45 161.44-21.75L161.44-21.75Q162.84-22.4 162.84-24.4L162.84-24.4Q162.84-25.85 162.39-26.55 161.94-27.25 161.24-27.25L161.24-27.25Q160.69-27.25 160.29-26.85L160.29-26.85Q160.24-26.8 160.29-26.15 160.34-25.5 160.34-24.85L160.34-24.85Q160.34-24.3 160.29-24.05L160.29-24.05Q160.09-23.2 160.09-22.3L160.09-22.3 160.04-21.85 160.09-21.45ZM182.09-33.4Q181.94-32.3 181.84-27.75L181.84-27.75Q181.84-26.35 181.64-20.65L181.64-20.65Q181.44-15.15 181.44-13.95L181.44-13.95Q181.44-11.05 181.54-6.63 181.64-2.2 181.74-1.35L181.74-1.35Q181.79-1.05 181.79-0.65L181.79-0.65Q181.79-0.3 181.66-0.15 181.54 0 181.29 0.15L181.29 0.15Q180.99 0.35 179.74 0.35L179.74 0.35Q179.54 0.35 179.11 0.35 178.69 0.35 178.59 0.25 178.49 0.15 178.49-0.15L178.49-0.15 178.54-1.75 178.64-8.3 178.74-18.8Q178.74-20.3 178.94-25.6L178.94-25.6Q178.99-26.85 179.09-29.68 179.19-32.5 179.09-33L179.09-33 179.04-34.05Q179.04-35.35 179.84-35.35L179.84-35.35 181.69-35.3Q182.19-35.3 182.19-34.6L182.19-34.6Q182.19-34.35 182.14-34.02 182.09-33.7 182.09-33.4L182.09-33.4ZM187.68-34.65Q188.43-34.65 190.43-34.75L190.43-34.75Q192.83-34.85 193.98-34.85L193.98-34.85 199.28-34.75 202.38-34.65 205.33-34.65Q209.63-34.65 210.33-34.75L210.33-34.75 210.68-34.8Q211.13-34.8 211.23-34.63 211.33-34.45 211.33-34.25 211.33-34.05 211.33-34L211.33-34Q211.33-33.95 211.36-33.02 211.38-32.1 210.88-31.4L210.88-31.4Q205.28-23.3 203.98-21.5L203.98-21.5Q200.38-16.4 197.88-13.1L197.88-13.1 193.13-6.6Q194.53-6.4 195.18-6.35L195.18-6.35Q196.73-6.15 198.78-6.15L198.78-6.15 201.63-6.2Q202.48-6.25 204.23-6.25L204.23-6.25Q205.63-6.25 209.43-6.45L209.43-6.45 212.53-6.55Q213.13-6.55 213.28-6.25 213.43-5.95 213.46-5.55 213.48-5.15 213.48-5L213.48-5 213.38-1.35 213.38-1.05Q213.38-0.55 213.28-0.45 213.18-0.35 212.68-0.3L212.68-0.3 211.68-0.2Q210.58-0.2 208.93 0.05L208.93 0.05Q208.23 0.15 206.03 0.15L206.03 0.15 202.08 0.1Q201.13 0.05 199.68 0.05L199.68 0.05 187.43 0.05Q186.33 0.05 186.08-0.28 185.83-0.6 185.86-1.03 185.88-1.45 185.88-1.6L185.88-1.6 185.98-3.55Q186.13-5 186.13-6L186.13-6Q186.13-6.4 186.48-6.9 186.83-7.4 187.48-8.1L187.48-8.1 188.28-9Q189.63-10.8 192.11-14.13 194.58-17.45 195.18-18.5L195.18-18.5Q195.78-19.6 197.63-22.03 199.48-24.45 199.93-25.1L199.93-25.1 200.53-25.9Q201.28-27 202.33-29.15L202.33-29.15 203.23-31.1Q202.93-31.1 202.78-31.15L202.78-31.15 201.78-31.25 196.48-31.3Q195.58-31.3 195.08-31.25L195.08-31.25 193.43-31.2Q192.73-31.2 192.53-31.25L192.53-31.25Q192.08-31.35 188.98-31.35L188.98-31.35 186.88-31.35Q186.48-31.4 186.38-31.5 186.28-31.6 186.31-31.75 186.33-31.9 186.33-32L186.33-32Q186.33-32.55 186.18-33.95L186.18-33.95Q186.13-34.45 186.41-34.58 186.68-34.7 187.08-34.68 187.48-34.65 187.68-34.65L187.68-34.65ZM239.28-29.85Q239.28-28.85 239.13-28L239.13-28Q239.08-27.25 238.43-27.25L238.43-27.25Q238.23-27.25 237.88-27.35 237.53-27.45 237.33-27.5L237.33-27.5Q236.58-27.65 232.98-27.65L232.98-27.65 231.08-27.7Q230.43-27.75 229.18-27.75L229.18-27.75Q228.28-27.75 227.83-27.7L227.83-27.7Q226.33-27.6 225.18-27.6L225.18-27.6 222.53-27.65Q222.13-27.65 222.08-27.48 222.03-27.3 222.03-26.65L222.03-26.65Q222.03-25.75 221.98-25.1L221.98-25.1Q221.88-23.1 221.88-21.85L221.88-21.85 221.88-18.9Q221.88-17.85 221.93-17.3L221.93-17.3Q222.33-17.25 223.28-17.25L223.28-17.25Q224.13-17.2 226.78-17.2L226.78-17.2Q227.88-17.2 229.98-17.3L229.98-17.3Q231.58-17.4 232.08-17.4L232.08-17.4Q232.78-17.4 233.48-17.32 234.18-17.25 234.53-17.25L234.53-17.25Q235.18-17.25 235.18-16.65L235.18-16.65Q235.18-16.45 235.13-16.07 235.08-15.7 235.08-15.1L235.08-15.1 235.13-12.45Q235.13-12 235.03-11.83 234.93-11.65 234.68-11.65L234.68-11.65Q234.53-11.65 234.26-11.73 233.98-11.8 233.78-11.8L233.78-11.8Q233.33-11.8 232.11-11.85 230.88-11.9 228.78-11.9L228.78-11.9Q226.53-11.9 224.88-11.7 223.23-11.5 222.88-11.5L222.88-11.5Q222.33-11.5 222.23-11.55L222.23-11.55Q221.98-11.55 221.93-11.6L221.93-11.6 221.93-6.6Q222.28-6.6 222.48-6.65L222.48-6.65 223.88-6.7 229.78-6.75Q231.58-6.75 232.63-6.7L232.63-6.7 236.08-6.65 238.18-6.7Q238.78-6.7 238.98-6.43 239.18-6.15 239.18-5.65L239.18-5.65 239.13-4.65 239.08-1.15Q239.08-0.35 238.73-0.18 238.38 0 237.73-0.03 237.08-0.05 236.68-0.05L236.68-0.05Q234.53-0.05 232.98-0.1L232.98-0.1 227.88-0.15Q227.28-0.15 221.88 0L221.88 0 219.98 0.05 219.68 0.1Q219.38 0.1 219.33-0.08 219.28-0.25 219.28-0.75L219.28-0.75Q219.23-1.3 219.23-2.6L219.23-2.6Q219.23-3 219.18-3.48 219.13-3.95 219.13-4.75L219.13-4.75 219.13-11.6Q219.13-12.6 219.21-13.55 219.28-14.5 219.28-14.95L219.28-14.95Q219.48-17.25 219.48-19.35L219.48-19.35Q219.48-21.95 219.33-23.45L219.33-23.45Q219.23-25.15 219.23-26.55L219.23-26.55Q219.23-29.7 219.38-33.9L219.38-33.9Q219.38-34.55 219.63-34.77 219.88-35 220.33-35L220.33-35 221.08-34.95Q221.53-34.95 222.53-34.88 223.53-34.8 224.98-34.8L224.98-34.8Q226.63-34.8 228.88-35.05L228.88-35.05Q231.58-35.25 232.48-35.25L232.48-35.25Q234.53-35.25 236.23-35.1L236.23-35.1 238.03-35.05Q238.68-35.05 238.88-34.75 239.08-34.45 239.08-33.65L239.08-33.65Q239.08-33.2 239.18-32.1L239.18-32.1Q239.28-30.8 239.28-29.85L239.28-29.85ZM267.73-1.4Q268.43-0.3 268.43 0.05L268.43 0.05Q268.43 0.25 268.18 0.3 267.93 0.35 267.75 0.35 267.58 0.35 267.48 0.35L267.48 0.35 261.83 0.5Q261.43 0.5 261.2 0.15 260.98-0.2 260.58-1.1L260.58-1.1Q260.33-1.85 259.68-3.1L259.68-3.1Q258.68-4.9 256.23-9.85L256.23-9.85 253.68-14.8 253.83-12.15 254.08-8.35Q254.38-1.65 254.58-0.95L254.58-0.95Q254.63-0.75 254.63-0.45L254.63-0.45Q254.63 0.45 253.68 0.45L253.68 0.45Q253.38 0.45 253.18 0.4L253.18 0.4Q252.38 0.3 249.28 0.6L249.28 0.6Q247.18 0.8 246.73 0.8L246.73 0.8Q246.08 0.8 245.85 0.55 245.63 0.3 245.63-0.3L245.63-0.3 245.68-1.45 245.58-4.35Q245.28-9.55 245.28-13.4L245.28-13.4Q245.28-15.4 245.43-16.15L245.43-16.15Q245.68-17.4 245.68-23.2L245.68-23.2Q245.68-29.25 245.48-32.35L245.48-32.35Q245.43-32.75 245.43-33.45L245.43-33.45Q245.43-34.25 245.58-34.6 245.73-34.95 245.9-34.98 246.08-35 246.53-35L246.53-35 247.63-35.1Q251.08-35.5 253.13-35.5L253.13-35.5Q258.73-35.5 261.55-32.63 264.38-29.75 264.38-25.15L264.38-25.15Q264.38-21.5 262.03-18.15L262.03-18.15Q261.03-16.7 259.73-15.55L259.73-15.55 263.23-9.2Q267.08-2.3 267.73-1.4L267.73-1.4ZM253.38-21.45Q254.13-21.45 254.73-21.75L254.73-21.75Q256.13-22.4 256.13-24.4L256.13-24.4Q256.13-25.85 255.68-26.55 255.23-27.25 254.53-27.25L254.53-27.25Q253.98-27.25 253.58-26.85L253.58-26.85Q253.53-26.8 253.58-26.15 253.63-25.5 253.63-24.85L253.63-24.85Q253.63-24.3 253.58-24.05L253.58-24.05Q253.38-23.2 253.38-22.3L253.38-22.3 253.33-21.85 253.38-21.45ZM275.48-6.8Q279.28-6.8 279.28-2.35L279.28-2.35Q279.28-1.15 278.1-0.28 276.93 0.6 275.48 0.6L275.48 0.6Q273.98 0.6 272.93-0.43 271.88-1.45 271.88-3.4L271.88-3.4Q271.88-5.4 272.9-6.1 273.93-6.8 275.48-6.8L275.48-6.8ZM293.27-35Q296.32-35 299.77-33.38 303.22-31.75 305.82-27.45 308.42-23.15 308.42-15.75L308.42-15.75Q308.42-9 305.2-5.53 301.97-2.05 298.42-1.07 294.87-0.1 292.52-0.1L292.52-0.1 288.42-0.05Q287.32 0 285.72 0L285.72 0Q284.77 0 284.77-1.7L284.77-1.7 284.82-3 284.72-5.5 284.67-7.75 284.62-9.25Q284.42-11.85 284.42-15.15L284.42-15.15Q284.42-17.1 284.62-20.3L284.62-20.3Q284.82-23.5 284.82-25.55L284.82-25.55 284.77-32.25Q284.72-33.05 284.72-34.05L284.72-34.05Q284.72-34.6 285.45-34.73 286.17-34.85 286.97-34.83 287.77-34.8 288.07-34.8L288.07-34.8 289.87-34.9Q291.97-35 293.27-35L293.27-35ZM293.37-10.7Q294.72-11.35 295.87-12.5L295.87-12.5Q298.37-14.9 298.37-18.2L298.37-18.2Q298.37-21.35 295.97-23.25L295.97-23.25Q294.92-24.05 293.62-24.45L293.62-24.45Q293.72-23.35 293.72-22.75L293.72-22.75Q293.72-21.8 293.62-20L293.62-20Q293.52-18.3 293.52-17.5L293.52-17.5Q293.52-16.2 293.42-13.3L293.42-13.3Q293.37-12.45 293.37-10.7L293.37-10.7ZM323.57-35.85Q328.32-35.85 331.4-33.98 334.47-32.1 336.17-30.4L336.17-30.4Q336.37-30.2 336.37-29.95L336.37-29.95Q336.37-29.8 336.25-29.58 336.12-29.35 336.07-29.25L336.07-29.25Q335.82-28.9 335.25-28.03 334.67-27.15 334.32-26.75L334.32-26.75Q334.17-26.55 334-26.33 333.82-26.1 333.7-26 333.57-25.9 333.32-25.9L333.32-25.9Q333.22-25.9 332.85-26.23 332.47-26.55 332.12-26.8L332.12-26.8Q330.12-28.55 328.22-29.8 326.32-31.05 324.57-31.05L324.57-31.05Q323.17-31.05 322.27-30.43 321.37-29.8 321.37-27.6L321.37-27.6Q321.37-25.45 322.97-24.25 324.57-23.05 327.22-21.95L327.22-21.95Q327.47-21.85 330.15-20.7 332.82-19.55 334.9-16.3 336.97-13.05 336.97-8.55L336.97-8.55Q336.97-3.75 333.37-1.35 329.77 1.05 323.42 1.05L323.42 1.05Q316.22 1.05 314.27-1.73 312.32-4.5 312.22-4.6L312.22-4.6Q312.02-4.85 312.02-5.1L312.02-5.1Q312.02-5.25 312.42-5.75L312.42-5.75Q313.07-6.65 314.32-7.9L314.32-7.9Q314.52-8.1 314.72-8.1L314.72-8.1Q314.97-8.1 315.27-7.73 315.57-7.35 315.77-7.15L315.77-7.15Q318.72-4.2 322.47-4.2L322.47-4.2Q324.37-4.2 325.77-4.93 327.17-5.65 327.17-7.65L327.17-7.65Q327.17-11.1 321.72-15L321.72-15Q320.82-15.6 320.02-16L320.02-16Q317.92-17.15 316.42-18.25 314.92-19.35 313.77-21.15 312.62-22.95 312.62-25.35L312.62-25.35Q312.62-28.35 314.5-30.75 316.37-33.15 319-34.5 321.62-35.85 323.57-35.85L323.57-35.85Z" opacity="1" transform="matrix(1,0,0,1,0,0)" fill="#f3a83c" class="undefined-text-0" data-fill-palette-color="primary" id="text-0"></path></svg></g></svg></g></svg></g></svg></g><g><svg viewBox="0 0 86.75090289996562 60.42622739668804" height="60.42622739668804" width="86.75090289996562"><g><svg version="1.0" xmlns="http://www.w3.org/2000/svg" xmlns:xlink="http://www.w3.org/1999/xlink" x="8" y="0" viewBox="0 0 100 85.4070053100586" enable-background="new 0 0 100 85.407" xml:space="preserve" width="70.75090289996562" height="60.42622739668804" class="icon-icon-0" data-fill-palette-color="accent" id="icon-0"><path d="M100 42.672c0 4.26-1.67 8.128-4.385 11.008-0.466 6.078-4.317 11.208-9.685 13.521v0.057c-6.555 3.817-10.474 10.333-11.667 18.149h-6.061V67.275c0.04-5.652 1.818-9.271 5.544-11.504 1.363-0.784 2.602-1.681 3.658-2.675 2.766 0.994 5.214 2.942 6.771 5.714 0.324 0.545 0.903 0.852 1.477 0.852 0.278 0 0.568-0.068 0.829-0.222 0.83-0.455 1.125-1.488 0.659-2.306h-0.011c-1.744-3.102-4.396-5.391-7.407-6.754 1.545-2.375 2.403-5.203 2.363-8.6 0-0.017 0.023-0.034 0.023-0.057 0-1.534-0.227-3.027-0.636-4.431 3.539-0.676 6.657-2.471 8.952-5 0.636-0.698 0.59-1.772-0.114-2.397-0.699-0.63-1.755-0.574-2.38 0.108-2 2.176-4.698 3.664-7.765 4.073-2.465-4.567-7.049-7.81-12.422-8.401 0.358-2.897 1.664-5.481 3.629-7.447 0.648-0.659 0.648-1.734 0-2.387-0.659-0.665-1.75-0.665-2.408 0-2.516 2.518-4.198 5.88-4.618 9.624-6.311-0.795-11.173-6.152-11.184-12.674 0-0.926-0.767-1.698-1.676-1.698-0.96 0-1.71 0.772-1.71 1.698 0 1.102 0.108 2.153 0.318 3.187-2.392 2.069-5.368 3.114-8.35 3.114-1.471 0-2.948-0.261-4.339-0.767 0 0-0.023-0.006-0.04-0.011-1.715-0.619-3.289-1.604-4.652-2.967-0.653-0.659-1.732-0.659-2.397 0-0.665 0.659-0.665 1.729 0 2.393 1.397 1.392 2.971 2.471 4.646 3.249-0.335 4.22-2.789 7.85-6.22 9.889-1.982-3.011-4.964-5.396-8.628-6.561-0.915-0.284-1.863 0.21-2.153 1.102-0.25 0.892 0.205 1.841 1.108 2.119 2.721 0.863 4.908 2.539 6.481 4.675-1.056 0.284-2.141 0.437-3.294 0.437 0 0 0 0-0.018 0H22.05c-4.351 0-8.35 1.733-11.258 4.568-0.688 0.653-0.704 1.727-0.028 2.392 0.323 0.341 0.767 0.511 1.227 0.511 0.387 0 0.812-0.159 1.142-0.477 2.307-2.25 5.453-3.607 8.918-3.607h0.182 0.005 0.018c8.156 0 14.933-6.074 15.995-13.946 1.159 0.25 2.317 0.386 3.493 0.386 3.312 0 6.652-1.028 9.463-3.062 1.028 2.346 2.653 4.396 4.624 5.987-2.011 2.477-3.192 5.419-3.504 8.429-0.847-0.136-1.738-0.21-2.63-0.21-2.556 0-5.152 0.607-7.566 1.898-0.829 0.438-1.142 1.465-0.704 2.295 0.307 0.562 0.903 0.892 1.511 0.892 0.278 0 0.528-0.062 0.772-0.205 1.943-1.017 3.977-1.5 5.987-1.5 0.897 0 1.783 0.097 2.63 0.278 0.369 3.431 1.852 6.788 4.402 9.458 0.341 0.353 0.778 0.523 1.216 0.523 0.415 0 0.846-0.154 1.182-0.466 0.693-0.653 0.71-1.716 0.051-2.392h-0.011c-2.267-2.397-3.465-5.441-3.544-8.52 0-0.046 0.011-0.08 0-0.131 0-0.062 0-0.125 0-0.188 0-2.989 1.034-5.943 3.079-8.317 2.153 1.074 4.606 1.699 7.203 1.699 0 0 0.011 0.005 0.028 0.005 0 0 0.011 0 0.028 0 7.032 0.023 12.724 5.705 12.752 12.736-1.334-0.352-2.709-0.534-4.118-0.534-2.016 0-4.061 0.369-6.032 1.182-0.875 0.358-1.29 1.34-0.937 2.204 0.357 0.863 1.329 1.284 2.198 0.932 1.579-0.63 3.187-0.937 4.771-0.937 1.278 0 2.545 0.193 3.732 0.562-0.415 1.897-1.227 3.419-2.488 4.771-0.097 0.085-0.188 0.182-0.261 0.295-0.966 0.949-2.125 1.823-3.556 2.692-4.902 2.863-7.254 8.055-7.203 14.418v18.132h-5.783V68.161c0-6.333-3.97-12.339-8.969-14.475-2.386-0.926-4.874-2.477-6.686-4.505-2.584 1.755-5.686 2.789-9.021 2.789-3.346 0-6.447-1.017-9.014-2.76-2.556 1.681-5.641 2.664-8.94 2.664C7.333 51.875 0 44.524 0 35.464c0-6.772 4.095-12.583 9.958-15.083 1.585-7.227 7.986-12.634 15.688-12.634 0.409 0 0.784 0.034 1.165 0.057 2.903-4.243 7.782-7.027 13.309-7.027 2.738 0 5.306 0.682 7.561 1.897C50.225 0.982 53.269 0 56.546 0c4.209 0 8.043 1.642 10.917 4.306 1.204-0.29 2.448-0.46 3.749-0.46 6.504 0 12.127 3.914 14.638 9.52 6.601 2 11.406 8.124 11.406 15.372 0 1.454-0.193 2.857-0.551 4.192C98.762 35.635 100 39.009 100 42.672z" fill="#ee8e3c" data-fill-palette-color="accent"></path></svg></g></svg></g></svg></g><defs></defs></svg><rect width="395.52" height="48.518310085400365" fill="none" stroke="none" visibility="hidden"></rect></g></svg></g></svg>